
<svg version="1.1" id="Layer_1" xmlns="http://www.w3.org/2000/svg" xmlns:xlink="http://www.w3.org/1999/xlink" x="0px" y="0px"
	 viewBox="0 0 24 24" style="enable-background:new 0 0 24 24;" xml:space="preserve">
<path d="M6.9,16c-0.4,0-0.7-0.2-0.9-0.6c-0.2-0.5,0-1.1,0.4-1.3c0.8-0.4,1.5-1,2-1.8c0.1-0.2,0.1-0.4,0-0.6c-0.5-0.8-1.2-1.4-2-1.8
	C5.9,9.6,5.7,9,6,8.6c0.2-0.5,0.8-0.7,1.3-0.4c1.1,0.6,2.1,1.4,2.8,2.5c0.6,0.9,0.6,2,0,2.8c-0.7,1.1-1.7,1.9-2.8,2.5
	C7.2,16,7,16,6.9,16z"/>
<path d="M17,16h-4c-0.6,0-1-0.4-1-1s0.4-1,1-1h4c0.6,0,1,0.4,1,1S17.6,16,17,16z"/>
<path d="M15,23H9c-5.5,0-8-2.5-8-8V9c0-5.5,2.5-8,8-8h6c5.5,0,8,2.5,8,8v6C23,20.5,20.5,23,15,23z M9,3C4.6,3,3,4.6,3,9v6
	c0,4.4,1.6,6,6,6h6c4.4,0,6-1.6,6-6V9c0-4.4-1.6-6-6-6H9z"/>
</svg>
