<svg width="16" height="16" viewBox="0 0 16 16" fill="none" xmlns="http://www.w3.org/2000/svg">
<path d="M7.99375 1.19219C4.12969 1.19062 1 4.31875 1 8.17969C1 11.2328 2.95781 13.8281 5.68438 14.7812C6.05156 14.8734 5.99531 14.6125 5.99531 14.4344V13.2234C3.875 13.4719 3.78906 12.0687 3.64688 11.8344C3.35938 11.3437 2.67969 11.2187 2.88281 10.9844C3.36563 10.7359 3.85781 11.0469 4.42813 11.8891C4.84063 12.5 5.64531 12.3969 6.05313 12.2953C6.14219 11.9281 6.33281 11.6 6.59531 11.3453C4.39844 10.9516 3.48281 9.61094 3.48281 8.01719C3.48281 7.24375 3.7375 6.53281 4.2375 5.95937C3.91875 5.01406 4.26719 4.20469 4.31406 4.08437C5.22188 4.00312 6.16563 4.73437 6.23906 4.79219C6.75469 4.65312 7.34375 4.57969 8.00313 4.57969C8.66563 4.57969 9.25625 4.65625 9.77656 4.79687C9.95313 4.6625 10.8281 4.03437 11.6719 4.11094C11.7172 4.23125 12.0578 5.02187 11.7578 5.95469C12.2641 6.52969 12.5219 7.24687 12.5219 8.02187C12.5219 9.61875 11.6 10.9609 9.39688 11.3484C9.58558 11.534 9.73541 11.7553 9.83763 11.9995C9.93984 12.2436 9.99238 12.5056 9.99219 12.7703V14.5281C10.0047 14.6687 9.99219 14.8078 10.2266 14.8078C12.9938 13.875 14.9859 11.2609 14.9859 8.18125C14.9859 4.31875 11.8547 1.19219 7.99375 1.19219Z" fill="white"/>
</svg>
